<svg xmlns="http://www.w3.org/2000/svg" width="1984" height="1838" viewBox="0 0 1984 1838">
  <g id="Group_542" data-name="Group 542" transform="translate(5534 -11512)">
    <rect id="Rectangle_1083" data-name="Rectangle 1083" width="1984" height="1838" transform="translate(-5534 11512)" fill="#f5f5f5"/>
    <g id="man" transform="translate(-5132.085 11736.342)">
      <path id="Path_6974" data-name="Path 6974" d="M1142.7,618.713a283.159,283.159,0,0,0-122.4-102.595L765.868,404.8a37.417,37.417,0,0,0-52.414,34.281v40.078a122.894,122.894,0,1,1-245.789,0V439.082A37.417,37.417,0,0,0,415.252,404.8L160.818,516.119A283.177,283.177,0,0,0,38.42,618.713a37.423,37.423,0,0,0,31.1,58.178H1111.6a37.423,37.423,0,0,0,31.1-58.178Z" transform="translate(0 600.27)" fill="#ff5a96"/>
      <path id="Path_6975" data-name="Path 6975" d="M797.765,670.6a37.419,37.419,0,0,0,10.377-51.89,283.159,283.159,0,0,0-122.4-102.595L431.307,404.8a37.417,37.417,0,0,0-52.414,34.281v40.078A123.033,123.033,0,0,1,256,602.055v74.836H777.044A37.241,37.241,0,0,0,797.765,670.6Z" transform="translate(334.562 600.27)" fill="#bc2d64"/>
      <path id="Path_6976" data-name="Path 6976" d="M534.77,377.566H214.15a37.418,37.418,0,0,0-37.417,37.417V515.178c0,109.2,88.526,197.728,197.728,197.728S572.189,624.38,572.189,515.178V414.983a37.42,37.42,0,0,0-37.419-37.417Z" transform="translate(216.102 564.255)" fill="#ffbeb9"/>
      <path id="Path_6977" data-name="Path 6977" d="M453.727,515.176V414.981a37.418,37.418,0,0,0-37.417-37.417H256V712.906C365.2,712.909,453.727,624.378,453.727,515.176Z" transform="translate(334.561 564.252)" fill="#ffa0aa"/>
      <path id="Path_6978" data-name="Path 6978" d="M261.994,192.8H183.773c-64.474,0-118.414,51.1-119.489,115.563A117.571,117.571,0,0,0,181.839,427.944h80.154a37.418,37.418,0,0,0,37.417-37.417V230.216A37.418,37.418,0,0,0,261.994,192.8Z" transform="translate(48.025 288.129)" fill="#ffbeb9"/>
      <path id="Path_6979" data-name="Path 6979" d="M390.884,192.8H469.1c64.474,0,118.414,51.1,119.49,115.563A117.571,117.571,0,0,1,471.038,427.944H390.884a37.418,37.418,0,0,1-37.417-37.417V230.216A37.416,37.416,0,0,1,390.884,192.8Z" transform="translate(480.223 288.129)" fill="#ffa0aa"/>
      <path id="Path_6980" data-name="Path 6980" d="M237.963,555.764a37.262,37.262,0,0,1-23.934-8.673c-5.458-4.55-133.7-113.206-133.7-269.209,0-117.551,91.237-187.331,95.121-190.245a37.416,37.416,0,0,1,59.867,29.933c0,28.354,22.363,58.7,49.592,73.554,10.674-57.512,41.575-106.548,90.928-143.563,45.6-34.2,91.594-45.96,93.53-46.444a37.417,37.417,0,0,1,46.492,36.3c0,40.677,5.139,71.913,11.539,94.3,42.718-39.9,119.679-91.636,231.585-91.636a37.417,37.417,0,0,1,33.468,54.15c-.254.514-20.716,42.2-30.729,92.709,27.955-4.093,63.07-3.881,99.379,9.925,57.989,22.046,102.739,71.6,133.012,147.28a37.417,37.417,0,0,1-34.74,51.313c-27.015.461-122.894,13.053-122.894,122.894a37.418,37.418,0,0,1-37.417,37.417Z" transform="translate(72.036 0)" fill="#82503c"/>
      <path id="Path_6981" data-name="Path 6981" d="M573.961,494.337c0-109.841,95.879-122.433,122.894-122.894a37.417,37.417,0,0,0,34.74-51.313c-30.273-75.682-75.023-125.234-133.012-147.28-36.312-13.807-71.424-14.019-99.379-9.925,10.013-50.51,30.475-92.193,30.729-92.709a37.417,37.417,0,0,0-33.468-54.15C384.559,16.065,307.6,67.8,264.88,107.7A289.66,289.66,0,0,1,256,61.7v470.06H536.544a37.421,37.421,0,0,0,37.417-37.419Z" transform="translate(334.563 24.007)" fill="#50321e"/>
      <path id="Path_6982" data-name="Path 6982" d="M710.305,616.261,549.994,536.107a232.486,232.486,0,0,0-207,0L182.683,616.261a37.417,37.417,0,0,1-54.15-33.468V342.327c0-109.028,88.7-197.728,197.728-197.728H566.727c109.028,0,197.728,88.7,197.728,197.728V582.793a37.417,37.417,0,0,1-54.15,33.468Z" transform="translate(144.069 216.096)" fill="#ffdcc8"/>
      <path id="Path_6983" data-name="Path 6983" d="M359.5,536.105,519.813,616.26a37.417,37.417,0,0,0,54.15-33.468V342.326c0-109.028-88.7-197.728-197.728-197.728H256V511.792A231.575,231.575,0,0,1,359.5,536.105Z" transform="translate(334.561 216.094)" fill="#ffbeb9"/>
      <circle id="Ellipse_378" data-name="Ellipse 378" cx="37.417" cy="37.417" r="37.417" transform="translate(432.913 521.006)" fill="#283741"/>
      <circle id="Ellipse_379" data-name="Ellipse 379" cx="37.417" cy="37.417" r="37.417" transform="translate(673.379 521.006)" fill="#0a141e"/>
      <path id="Path_6984" data-name="Path 6984" d="M446.491,663a396.076,396.076,0,0,1-177.042-41.57c-55.776-27.893-140.917-88.79-140.917-213.817a37.42,37.42,0,0,1,20.684-33.468l160.311-80.154a307.68,307.68,0,0,1,273.936,0l160.306,80.152a37.418,37.418,0,0,1,20.684,33.468c0,125.172-85.33,186.017-140.914,213.815A396.086,396.086,0,0,1,446.491,663Z" transform="translate(144.069 391.279)" fill="#f0f5fa"/>
      <path id="Path_6985" data-name="Path 6985" d="M573.961,407.609a37.42,37.42,0,0,0-20.684-33.468L392.971,293.99A306.318,306.318,0,0,0,256,261.821V663a396.083,396.083,0,0,0,177.049-41.573C488.63,593.626,573.961,532.784,573.961,407.609Z" transform="translate(334.563 391.279)" fill="#dfe3e9"/>
    </g>
    <g id="Group_538" data-name="Group 538" transform="translate(3316 244)">
      <line id="Line_44" data-name="Line 44" x2="201" transform="translate(-7358.5 12914.5)" fill="none" stroke="#bc2d64" stroke-linecap="round" stroke-width="39"/>
      <line id="Line_43" data-name="Line 43" y2="199" transform="translate(-7157.5 12710.5)" fill="none" stroke="#bc2d64" stroke-linecap="round" stroke-width="39"/>
    </g>
    <g id="Group_541" data-name="Group 541" transform="translate(-16756.5 4543.5) rotate(-90)">
      <line id="Line_44-2" data-name="Line 44" x2="201" transform="translate(-7358.5 12914.5)" fill="none" stroke="#bc2d64" stroke-linecap="round" stroke-width="39"/>
      <line id="Line_43-2" data-name="Line 43" y2="199" transform="translate(-7157.5 12710.5)" fill="none" stroke="#bc2d64" stroke-linecap="round" stroke-width="39"/>
    </g>
    <g id="Group_539" data-name="Group 539" transform="translate(-12400 24613) rotate(180)">
      <line id="Line_44-3" data-name="Line 44" x2="201" transform="translate(-7358.5 12914.5)" fill="none" stroke="#bc2d64" stroke-linecap="round" stroke-width="39"/>
      <line id="Line_43-3" data-name="Line 43" y2="199" transform="translate(-7157.5 12710.5)" fill="none" stroke="#bc2d64" stroke-linecap="round" stroke-width="39"/>
    </g>
    <g id="Group_540" data-name="Group 540" transform="translate(7669.5 20316.5) rotate(90)">
      <line id="Line_44-4" data-name="Line 44" x2="201" transform="translate(-7358.5 12914.5)" fill="none" stroke="#bc2d64" stroke-linecap="round" stroke-width="39"/>
      <line id="Line_43-4" data-name="Line 43" y2="199" transform="translate(-7157.5 12710.5)" fill="none" stroke="#bc2d64" stroke-linecap="round" stroke-width="39"/>
    </g>
  </g>
</svg>
